<?xml version="1.0" encoding="UTF-8" standalone="no"?>
<!DOCTYPE svg PUBLIC "-//W3C//DTD SVG 1.1//EN"
 "http://www.w3.org/Graphics/SVG/1.1/DTD/svg11.dtd">
<!-- Generated by graphviz version 2.30.1 (20130221.2233)
 -->
<!-- Title: G Pages: 1 -->
<svg width="787pt" height="756pt"
 viewBox="0.00 0.00 787.00 756.00" xmlns="http://www.w3.org/2000/svg" xmlns:xlink="http://www.w3.org/1999/xlink">
<g id="graph0" class="graph" transform="scale(1 1) rotate(0) translate(4 752)">
<title>G</title>
<polygon fill="white" stroke="white" points="-4,5 -4,-752 784,-752 784,5 -4,5"/>
<g id="clust1" class="cluster"><title>cluster_baseProject</title>
<path fill="none" stroke="gray" d="M20,-44C20,-44 551,-44 551,-44 557,-44 563,-50 563,-56 563,-56 563,-647 563,-647 563,-653 557,-659 551,-659 551,-659 20,-659 20,-659 14,-659 8,-653 8,-647 8,-647 8,-56 8,-56 8,-50 14,-44 20,-44"/>
<text text-anchor="middle" x="285.5" y="-644" font-family="Times,serif" font-size="11.00" fill="gray">baseProject</text>
</g>
<g id="clust2" class="cluster"><title>cluster_baseProject\Controllers</title>
<path fill="none" stroke="gray" d="M28,-557C28,-557 537,-557 537,-557 543,-557 549,-563 549,-569 549,-569 549,-618 549,-618 549,-624 543,-630 537,-630 537,-630 28,-630 28,-630 22,-630 16,-624 16,-618 16,-618 16,-569 16,-569 16,-563 22,-557 28,-557"/>
<text text-anchor="middle" x="282.5" y="-615" font-family="Times,serif" font-size="11.00" fill="gray">Controllers</text>
</g>
<g id="clust3" class="cluster"><title>cluster_baseProject\Exceptions</title>
<path fill="none" stroke="gray" d="M225,-314C225,-314 543,-314 543,-314 549,-314 555,-320 555,-326 555,-326 555,-537 555,-537 555,-543 549,-549 543,-549 543,-549 225,-549 225,-549 219,-549 213,-543 213,-537 213,-537 213,-326 213,-326 213,-320 219,-314 225,-314"/>
<text text-anchor="middle" x="384" y="-534" font-family="Times,serif" font-size="11.00" fill="gray">Exceptions</text>
</g>
<g id="clust4" class="cluster"><title>cluster_baseProject\Helpers</title>
<path fill="none" stroke="gray" d="M446,-233C446,-233 520,-233 520,-233 526,-233 532,-239 532,-245 532,-245 532,-294 532,-294 532,-300 526,-306 520,-306 520,-306 446,-306 446,-306 440,-306 434,-300 434,-294 434,-294 434,-245 434,-245 434,-239 440,-233 446,-233"/>
<text text-anchor="middle" x="483" y="-291" font-family="Times,serif" font-size="11.00" fill="gray">Helpers</text>
</g>
<g id="clust5" class="cluster"><title>cluster_baseProject\Managers</title>
<path fill="none" stroke="gray" d="M446,-152C446,-152 520,-152 520,-152 526,-152 532,-158 532,-164 532,-164 532,-213 532,-213 532,-219 526,-225 520,-225 520,-225 446,-225 446,-225 440,-225 434,-219 434,-213 434,-213 434,-164 434,-164 434,-158 440,-152 446,-152"/>
<text text-anchor="middle" x="483" y="-210" font-family="Times,serif" font-size="11.00" fill="gray">Managers</text>
</g>
<g id="clust6" class="cluster"><title>cluster_global</title>
<path fill="none" stroke="gray" d="M439,-667C439,-667 758,-667 758,-667 764,-667 770,-673 770,-679 770,-679 770,-728 770,-728 770,-734 764,-740 758,-740 758,-740 439,-740 439,-740 433,-740 427,-734 427,-728 427,-728 427,-679 427,-679 427,-673 433,-667 439,-667"/>
<text text-anchor="middle" x="598.5" y="-725" font-family="Times,serif" font-size="11.00" fill="gray">global</text>
</g>
<g id="clust7" class="cluster"><title>cluster_sampleProject</title>
<path fill="none" stroke="gray" d="M629,-300C629,-300 759,-300 759,-300 765,-300 771,-306 771,-312 771,-312 771,-444 771,-444 771,-450 765,-456 759,-456 759,-456 629,-456 629,-456 623,-456 617,-450 617,-444 617,-444 617,-312 617,-312 617,-306 623,-300 629,-300"/>
<text text-anchor="middle" x="694" y="-441" font-family="Times,serif" font-size="11.00" fill="gray">sampleProject</text>
</g>
<g id="clust8" class="cluster"><title>cluster_sampleProject\Controllers</title>
<path fill="none" stroke="gray" d="M637,-354C637,-354 751,-354 751,-354 757,-354 763,-360 763,-366 763,-366 763,-415 763,-415 763,-421 757,-427 751,-427 751,-427 637,-427 637,-427 631,-427 625,-421 625,-415 625,-415 625,-366 625,-366 625,-360 631,-354 637,-354"/>
<text text-anchor="middle" x="694" y="-412" font-family="Times,serif" font-size="11.00" fill="gray">Controllers</text>
</g>
<!-- \\baseProject\\Controllers\\BaseController -->
<g id="node1" class="node"><title>\\baseProject\\Controllers\\BaseController</title>
<g id="a_node1"><a xlink:href="baseProject.Controllers.BaseController.html" xlink:title="BaseController" target="_parent">
<polygon fill="none" stroke="black" points="132.416,-601 23.5842,-601 23.5842,-565 132.416,-565 132.416,-601"/>
<text text-anchor="middle" x="78" y="-578.6" font-family="Courier,monospace" font-size="11.00">BaseController</text>
</a>
</g>
</g>
<!-- \\baseProject\\Controllers\\BasePageController -->
<g id="node2" class="node"><title>\\baseProject\\Controllers\\BasePageController</title>
<g id="a_node2"><a xlink:href="baseProject.Controllers.BasePageController.html" xlink:title="BasePageController" target="_parent">
<polygon fill="none" stroke="black" points="339.319,-601 204.681,-601 204.681,-565 339.319,-565 339.319,-601"/>
<text text-anchor="middle" x="272" y="-578.6" font-family="Courier,monospace" font-size="11.00">BasePageController</text>
</a>
</g>
</g>
<!-- \\baseProject\\Controllers\\BasePageController&#45;&gt;\\baseProject\\Controllers\\BaseController -->
<g id="edge1" class="edge"><title>\\baseProject\\Controllers\\BasePageController&#45;&gt;\\baseProject\\Controllers\\BaseController</title>
<path fill="none" stroke="black" d="M204.656,-583C184.534,-583 162.484,-583 142.55,-583"/>
<polygon fill="none" stroke="black" points="142.34,-579.5 132.34,-583 142.34,-586.5 142.34,-579.5"/>
</g>
<!-- \\baseProject\\Controllers\\ErrorController -->
<g id="node3" class="node"><title>\\baseProject\\Controllers\\ErrorController</title>
<g id="a_node3"><a xlink:href="baseProject.Controllers.ErrorController.html" xlink:title="ErrorController" target="_parent">
<polygon fill="none" stroke="black" points="540.516,-601 425.484,-601 425.484,-565 540.516,-565 540.516,-601"/>
<text text-anchor="middle" x="483" y="-578.6" font-family="Courier,monospace" font-size="11.00">ErrorController</text>
</a>
</g>
</g>
<!-- \\baseProject\\Controllers\\ErrorController&#45;&gt;\\baseProject\\Controllers\\BasePageController -->
<g id="edge2" class="edge"><title>\\baseProject\\Controllers\\ErrorController&#45;&gt;\\baseProject\\Controllers\\BasePageController</title>
<path fill="none" stroke="black" d="M425.442,-583C402.172,-583 374.854,-583 349.82,-583"/>
<polygon fill="none" stroke="black" points="349.619,-579.5 339.619,-583 349.619,-586.5 349.619,-579.5"/>
</g>
<!-- \\baseProject\\Exceptions\\BaseException -->
<g id="node4" class="node"><title>\\baseProject\\Exceptions\\BaseException</title>
<g id="a_node4"><a xlink:href="baseProject.Exceptions.BaseException.html" xlink:title="«abstract»&lt;br/&gt;BaseException" target="_parent">
<polygon fill="none" stroke="black" points="323,-412 221,-412 221,-376 323,-376 323,-412"/>
<text text-anchor="start" x="239" y="-395.5" font-family="Courier,monospace" font-size="11.00">«abstract»</text>
<text text-anchor="start" x="229.5" y="-384.5" font-family="Courier,monospace" font-size="11.00">BaseException</text>
</a>
</g>
</g>
<!-- \\Exception -->
<g id="node17" class="node"><title>\\Exception</title>
<ellipse fill="none" stroke="black" cx="78" cy="-18" rx="52.7417" ry="18"/>
<text text-anchor="middle" x="78" y="-12.4" font-family="Times,serif" font-size="14.00" fill="gray">\Exception</text>
</g>
<!-- \\baseProject\\Exceptions\\BaseException&#45;&gt;\\Exception -->
<g id="edge3" class="edge"><title>\\baseProject\\Exceptions\\BaseException&#45;&gt;\\Exception</title>
<path fill="none" stroke="black" d="M261.739,-375.865C230.626,-314.935 129.732,-117.351 92.7503,-44.9277"/>
<polygon fill="none" stroke="black" points="95.8326,-43.2676 88.1676,-35.9533 89.5983,-46.4511 95.8326,-43.2676"/>
</g>
<!-- \\baseProject\\Exceptions\\Error403Exception -->
<g id="node5" class="node"><title>\\baseProject\\Exceptions\\Error403Exception</title>
<g id="a_node5"><a xlink:href="baseProject.Exceptions.Error403Exception.html" xlink:title="Error403Exception" target="_parent">
<polygon fill="none" stroke="black" points="547.218,-520 418.782,-520 418.782,-484 547.218,-484 547.218,-520"/>
<text text-anchor="middle" x="483" y="-497.6" font-family="Courier,monospace" font-size="11.00">Error403Exception</text>
</a>
</g>
</g>
<!-- \\baseProject\\Exceptions\\Error403Exception&#45;&gt;\\baseProject\\Exceptions\\BaseException -->
<g id="edge4" class="edge"><title>\\baseProject\\Exceptions\\Error403Exception&#45;&gt;\\baseProject\\Exceptions\\BaseException</title>
<path fill="none" stroke="black" d="M432.247,-483.941C425.371,-481.118 418.457,-478.102 412,-475 376.107,-457.756 337.081,-434.596 309.545,-417.458"/>
<polygon fill="none" stroke="black" points="311.359,-414.465 301.026,-412.121 307.642,-420.396 311.359,-414.465"/>
</g>
<!-- \\baseProject\\Exceptions\\Error404Exception -->
<g id="node6" class="node"><title>\\baseProject\\Exceptions\\Error404Exception</title>
<g id="a_node6"><a xlink:href="baseProject.Exceptions.Error404Exception.html" xlink:title="Error404Exception" target="_parent">
<polygon fill="none" stroke="black" points="547.218,-466 418.782,-466 418.782,-430 547.218,-430 547.218,-466"/>
<text text-anchor="middle" x="483" y="-443.6" font-family="Courier,monospace" font-size="11.00">Error404Exception</text>
</a>
</g>
</g>
<!-- \\baseProject\\Exceptions\\Error404Exception&#45;&gt;\\baseProject\\Exceptions\\BaseException -->
<g id="edge5" class="edge"><title>\\baseProject\\Exceptions\\Error404Exception&#45;&gt;\\baseProject\\Exceptions\\BaseException</title>
<path fill="none" stroke="black" d="M418.726,-431.652C391.56,-424.633 359.966,-416.47 333.155,-409.542"/>
<polygon fill="none" stroke="black" points="333.69,-406.066 323.132,-406.953 331.939,-412.843 333.69,-406.066"/>
</g>
<!-- \\baseProject\\Exceptions\\Error410Exception -->
<g id="node7" class="node"><title>\\baseProject\\Exceptions\\Error410Exception</title>
<g id="a_node7"><a xlink:href="baseProject.Exceptions.Error410Exception.html" xlink:title="Error410Exception" target="_parent">
<polygon fill="none" stroke="black" points="547.218,-412 418.782,-412 418.782,-376 547.218,-376 547.218,-412"/>
<text text-anchor="middle" x="483" y="-389.6" font-family="Courier,monospace" font-size="11.00">Error410Exception</text>
</a>
</g>
</g>
<!-- \\baseProject\\Exceptions\\Error410Exception&#45;&gt;\\baseProject\\Exceptions\\BaseException -->
<g id="edge6" class="edge"><title>\\baseProject\\Exceptions\\Error410Exception&#45;&gt;\\baseProject\\Exceptions\\BaseException</title>
<path fill="none" stroke="black" d="M418.726,-394C391.56,-394 359.966,-394 333.155,-394"/>
<polygon fill="none" stroke="black" points="333.132,-390.5 323.132,-394 333.132,-397.5 333.132,-390.5"/>
</g>
<!-- \\baseProject\\Exceptions\\Error500Exception -->
<g id="node8" class="node"><title>\\baseProject\\Exceptions\\Error500Exception</title>
<g id="a_node8"><a xlink:href="baseProject.Exceptions.Error500Exception.html" xlink:title="Error500Exception" target="_parent">
<polygon fill="none" stroke="black" points="547.218,-358 418.782,-358 418.782,-322 547.218,-322 547.218,-358"/>
<text text-anchor="middle" x="483" y="-335.6" font-family="Courier,monospace" font-size="11.00">Error500Exception</text>
</a>
</g>
</g>
<!-- \\baseProject\\Exceptions\\Error500Exception&#45;&gt;\\baseProject\\Exceptions\\BaseException -->
<g id="edge7" class="edge"><title>\\baseProject\\Exceptions\\Error500Exception&#45;&gt;\\baseProject\\Exceptions\\BaseException</title>
<path fill="none" stroke="black" d="M418.726,-356.348C391.56,-363.367 359.966,-371.53 333.155,-378.458"/>
<polygon fill="none" stroke="black" points="331.939,-375.157 323.132,-381.047 333.69,-381.934 331.939,-375.157"/>
</g>
<!-- \\baseProject\\Helpers\\HtmlHelper -->
<g id="node9" class="node"><title>\\baseProject\\Helpers\\HtmlHelper</title>
<g id="a_node9"><a xlink:href="baseProject.Helpers.HtmlHelper.html" xlink:title="HtmlHelper" target="_parent">
<polygon fill="none" stroke="black" points="524.011,-277 441.989,-277 441.989,-241 524.011,-241 524.011,-277"/>
<text text-anchor="middle" x="483" y="-254.6" font-family="Courier,monospace" font-size="11.00">HtmlHelper</text>
</a>
</g>
</g>
<!-- \\baseProject\\Managers\\SEOManager -->
<g id="node10" class="node"><title>\\baseProject\\Managers\\SEOManager</title>
<g id="a_node10"><a xlink:href="baseProject.Managers.SEOManager.html" xlink:title="SEOManager" target="_parent">
<polygon fill="none" stroke="black" points="524.011,-196 441.989,-196 441.989,-160 524.011,-160 524.011,-196"/>
<text text-anchor="middle" x="483" y="-173.6" font-family="Courier,monospace" font-size="11.00">SEOManager</text>
</a>
</g>
</g>
<!-- \\baseProject\\AbstractRoutesTable -->
<g id="node11" class="node"><title>\\baseProject\\AbstractRoutesTable</title>
<g id="a_node11"><a xlink:href="baseProject.AbstractRoutesTable.html" xlink:title="«abstract»&lt;br/&gt;AbstractRoutesTable" target="_parent">
<polygon fill="none" stroke="black" points="554,-142 412,-142 412,-106 554,-106 554,-142"/>
<text text-anchor="start" x="450" y="-125.5" font-family="Courier,monospace" font-size="11.00">«abstract»</text>
<text text-anchor="start" x="420.5" y="-114.5" font-family="Courier,monospace" font-size="11.00">AbstractRoutesTable</text>
</a>
</g>
</g>
<!-- \\baseProject\\Dispatcher -->
<g id="node12" class="node"><title>\\baseProject\\Dispatcher</title>
<g id="a_node12"><a xlink:href="baseProject.Dispatcher.html" xlink:title="Dispatcher" target="_parent">
<polygon fill="none" stroke="black" points="524.011,-88 441.989,-88 441.989,-52 524.011,-52 524.011,-88"/>
<text text-anchor="middle" x="483" y="-65.6" font-family="Courier,monospace" font-size="11.00">Dispatcher</text>
</a>
</g>
</g>
<!-- \\BootStrapper -->
<g id="node13" class="node"><title>\\BootStrapper</title>
<g id="a_node13"><a xlink:href="baseProject.BootStrapper.html" xlink:title="«abstract»&lt;br/&gt;BootStrapper" target="_parent">
<polygon fill="none" stroke="black" points="531,-711 435,-711 435,-675 531,-675 531,-711"/>
<text text-anchor="start" x="450" y="-694.5" font-family="Courier,monospace" font-size="11.00">«abstract»</text>
<text text-anchor="start" x="443.5" y="-683.5" font-family="Courier,monospace" font-size="11.00">BootStrapper</text>
</a>
</g>
</g>
<!-- \\SampleBootStrapper -->
<g id="node14" class="node"><title>\\SampleBootStrapper</title>
<g id="a_node14"><a xlink:href="SampleBootStrapper.html" xlink:title="SampleBootStrapper" target="_parent">
<polygon fill="none" stroke="black" points="761.319,-711 626.681,-711 626.681,-675 761.319,-675 761.319,-711"/>
<text text-anchor="middle" x="694" y="-688.6" font-family="Courier,monospace" font-size="11.00">SampleBootStrapper</text>
</a>
</g>
</g>
<!-- \\SampleBootStrapper&#45;&gt;\\BootStrapper -->
<g id="edge8" class="edge"><title>\\SampleBootStrapper&#45;&gt;\\BootStrapper</title>
<path fill="none" stroke="black" d="M626.584,-693C599.149,-693 567.656,-693 541.258,-693"/>
<polygon fill="none" stroke="black" points="541.036,-689.5 531.036,-693 541.036,-696.5 541.036,-689.5"/>
</g>
<!-- \\sampleProject\\Controllers\\SampleController -->
<g id="node15" class="node"><title>\\sampleProject\\Controllers\\SampleController</title>
<g id="a_node15"><a xlink:href="sampleProject.Controllers.SampleController.html" xlink:title="SampleController" target="_parent">
<polygon fill="none" stroke="black" points="754.618,-398 633.382,-398 633.382,-362 754.618,-362 754.618,-398"/>
<text text-anchor="middle" x="694" y="-375.6" font-family="Courier,monospace" font-size="11.00">SampleController</text>
</a>
</g>
</g>
<!-- \\sampleProject\\Controllers\\SampleController&#45;&gt;\\baseProject\\Controllers\\BasePageController -->
<g id="edge9" class="edge"><title>\\sampleProject\\Controllers\\SampleController&#45;&gt;\\baseProject\\Controllers\\BasePageController</title>
<path fill="none" stroke="black" d="M689.247,-398.106C678.722,-443.632 644.215,-562.614 563,-610 488.585,-653.418 384.763,-627.081 323.642,-604.608"/>
<polygon fill="none" stroke="black" points="324.802,-601.305 314.21,-601.046 322.329,-607.854 324.802,-601.305"/>
</g>
<!-- \\sampleProject\\RoutesTable -->
<g id="node16" class="node"><title>\\sampleProject\\RoutesTable</title>
<g id="a_node16"><a xlink:href="sampleProject.RoutesTable.html" xlink:title="RoutesTable" target="_parent">
<polygon fill="none" stroke="black" points="738.113,-344 649.887,-344 649.887,-308 738.113,-308 738.113,-344"/>
<text text-anchor="middle" x="694" y="-321.6" font-family="Courier,monospace" font-size="11.00">RoutesTable</text>
</a>
</g>
</g>
<!-- \\sampleProject\\RoutesTable&#45;&gt;\\baseProject\\AbstractRoutesTable -->
<g id="edge10" class="edge"><title>\\sampleProject\\RoutesTable&#45;&gt;\\baseProject\\AbstractRoutesTable</title>
<path fill="none" stroke="black" d="M684.738,-307.856C667.423,-271.867 623.842,-191.203 563,-148 562.715,-147.798 562.429,-147.597 562.14,-147.398"/>
<polygon fill="none" stroke="black" points="563.729,-144.269 553.362,-142.082 560.103,-150.256 563.729,-144.269"/>
</g>
</g>
</svg>
